<?xml version="1.0" encoding="utf-8"?>
<!-- Generator: Adobe Illustrator 19.0.1, SVG Export Plug-In . SVG Version: 6.00 Build 0)  -->
<svg version="1.1" id="Слой_1" xmlns="http://www.w3.org/2000/svg" xmlns:xlink="http://www.w3.org/1999/xlink" x="0px" y="0px"
	 viewBox="0 0 30 30" style="enable-background:new 0 0 30 30;" xml:space="preserve">
<style type="text/css">
	.st0{fill:#D4D4D6;}
	.st1{stroke:#000000;stroke-width:0.2;stroke-miterlimit:10;}
	.st2{fill:#979695;}
</style>
<path class="st0" d="M7.7,2.9c-1,0.5-2.3,1.7-3,10c-0.6,6.4-0.9,9.6,0.3,11.3c2.9,4.4,10.3,5.1,15.5,3c1.4-0.6,3.4-1.3,4.8-3.3
	c0.5-0.7,1.5-2.5,0-11.5c-1.4-8.4-2.8-9.5-3.8-9.8c-0.5-0.1-0.5,0-2.8,0.3c-0.2,0-3.2,0.3-6.2,0.3C8.6,3,8.6,2.5,7.7,2.9z"/>
<polygon class="st1" points="14.6,6.9 14.6,13.4 6,12.1 6,13.6 14.4,15.1 14.4,26.1 15.8,26.1 16.2,15.2 23.9,13.9 23.9,12.3 
	16.2,13.2 16.5,6.9 "/>
<ellipse class="st2" cx="14.8" cy="3.7" rx="8.1" ry="2.4"/>
</svg>
