<?xml version="1.0" encoding="utf-8"?>
<!-- Generator: Adobe Illustrator 19.0.1, SVG Export Plug-In . SVG Version: 6.00 Build 0)  -->
<svg version="1.2" baseProfile="tiny" id="Слой_1"
	 xmlns="http://www.w3.org/2000/svg" xmlns:xlink="http://www.w3.org/1999/xlink" x="0px" y="0px" viewBox="0 0 400 500"
	 xml:space="preserve">
<path fill="#251A19" stroke="#000000" stroke-miterlimit="10" d="M362,206c-0.2-1.8-0.2-3.6,0.2-5.4c0,0,0-0.1,0.1-0.1
	c0,0,0.1,0,0.1,0c0.6,0,1.1,0.5,1.4,1c1.1,1.5,1.9,3.2,2.9,4.7"/>
<path fill="#251A19" stroke="#000000" stroke-miterlimit="10" d="M346,205.2h-51.5c-22.2-0.5-44.5-0.9-66.7-1.4
	c-23.1-0.5-46.2-1.1-69.3-1.6H156c-9.4-0.4-19.8,0-31.1,1.6c-2.9,0.4-5.6,0.9-8.3,1.5c6.5-0.4,15.7-0.7,26.7-0.5
	c7.2,0.2,10.8,0.2,15.1,0.7c11.5,1.4,22.5,5.8,34,7.7c5.2,0.9,10.5,1.2,15.6,2.6c4.8,1.3,9.4,3.6,14.1,3.8c0.3,0,0.6,0,0.9-0.1
	c0.8-0.1,1.6-0.2,2.4-0.2c-0.3,0.1-0.6,0.1-0.8,0.1c18.3-1.1,36.6-2.2,54.9-3.3h102l0.6-11.7L346,205.2z"/>
<path fill="none" stroke="#000000" stroke-miterlimit="10" d="M102.4,227.5c0,2.3,0.1,4.7-0.5,6.9s-1.9,4.2-3.9,4.9"/>
<path fill="none" stroke="#000000" stroke-miterlimit="10" d="M81.3,231.6c0.9,2.8,3,8,7.7,10.1c1.5,0.7,3,0.9,5.7,1.2
	c3.6,0.4,6,0.6,9,0c1.4-0.3,5.4-1.2,9-4.4c5.1-4.6,6.1-10.9,6.4-12.8"/>
<path fill="none" d="M225.8,219.6c0.1,0,0.2,0,0.4,0c0.2,0,0.3,0,0.5-0.1C226.4,219.6,226.1,219.6,225.8,219.6z"/>
<path fill="none" d="M140.7,224.8c20.1,1.1,40.2,0.5,60.2-1.9c8.4-1,16.8-2.3,25.3-3.2c-0.1,0-0.2,0-0.4,0
	C197.4,221.3,169.1,223.1,140.7,224.8z"/>
<path fill="none" d="M226.1,219.6c0.7,0,1.4,0,2.1-0.1c-0.5,0-1,0.1-1.5,0.1C226.5,219.6,226.3,219.6,226.1,219.6z"/>
<rect x="177.8" y="208.2" fill="#3D3231" width="204" height="4.3"/>
<path fill="#684434" stroke="#000000" stroke-miterlimit="10" d="M211.6,215.9c-5.1-1.3-10.4-1.7-15.6-2.6
	c-11.5-1.9-22.5-6.3-34-7.7c-5-0.6-10.1-0.7-15.1-0.7c-8.2-0.1-16.4-0.2-24.6-0.3c-7.5,0.9-14.5,2.1-21,3.4c-9.6,2-22.6,5.9-36.2,14
	c-7.1,4.2-12.9,8.6-17.7,12.8c-5.2,6.3-10.4,12.6-15.6,18.9c-3.5,6.8-6.9,13.5-10.4,20.3c8.7,0.1,17.3,0.2,26,0.3
	c7.5-0.3,15.1-0.5,22.6-0.8c0.4-2.5,0.8-4.9,1.2-7.4c0.8-4.9,1.6-9.9,2.5-14.8c0.1-1.4,0.4-4.1,2.1-7c1.6-2.8,3.7-4.3,5.1-5.3
	c7.2-5.1,13.4-9.2,17.2-11.6c14.2-0.9,28.5-1.7,42.7-2.6l0,0c28.4-1.7,56.7-3.4,85.1-5.2C221,219.5,216.5,217.1,211.6,215.9z"/>
<path fill="#684B34" d="M198.6,206.4c0.6-0.2,0.3-0.3,0.5-0.8c0.5-1,2.9,0.7,1.7,2c-1.1,1.3-2.1-1-3-1.4c-0.5-0.2-1.4,0-1.7-0.4
	c-0.2-0.3,0-0.5-0.2-0.9c-0.1-0.1-0.2-0.2-0.4-0.2L195,205c-0.2,0.4-0.6,0.7-1,0.5c-0.7,0.1-1.2,0.6-1.6,1.2c0,0.1-0.1,0.1-0.1,0.2
	c0,0.1,0.2,0.2,0.3,0.2c0.6,0,1.1-0.2,1.6-0.4c0.1,0,0.2-0.1,0.2-0.2c0.1-0.1,0-0.2,0-0.4c0-0.2,0.1-0.5,0.4-0.6l0.1,0.3
	c0.2,0.1,0.5,0.1,0.7,0.1c0.2,0,0.4,0,0.5-0.1c0.4-0.2,0.4-0.7,0.2-1.1c-0.1-0.2-0.2-0.3-0.4-0.4c-0.3-0.1-0.7-0.1-1,0.1
	c-0.3,0.2-0.5,0.5-0.6,0.8c0,0.2,0,0.3,0,0.5l-3.1-0.4c-0.2-0.1-0.4-0.1-0.5,0.1c0,0.1,0,0.1-0.1,0.2c-0.1,0.4-0.1,0.9-0.2,1.3
	c0,0.1,0,0.1,0,0.2c0.1,0.2,0.3,0.2,0.4,0.2c0.3,0,0.5,0,0.8,0c0.1,0,0.2,0,0.3-0.1c0.1-0.1,0.1-0.1,0.1-0.2c0.1-0.3,0.1-0.6,0-1
	c0-0.1,0-0.1-0.1-0.2c-0.1-0.1-0.1-0.1-0.2-0.1c-0.3-0.1-0.6,0-0.9,0.1l-0.8,0.5c-0.3-0.2-0.6-0.4-0.8-0.5c0,0.2-0.1,0.4,0,0.5
	c-0.3,0.2-0.6,0.3-0.9,0.5c-0.2,0.1-0.4,0.3-0.3,0.5c0.1,0.2,0.4,0.2,0.6,0.2c0.5-0.1,1.1-0.3,1.5-0.6"/>
</svg>
